<svg preserveAspectRatio="none" width="100%" height="100%" overflow="visible" style="display: block;" viewBox="0 0 82 42.7996" fill="none" xmlns="http://www.w3.org/2000/svg">
<g id="Group">
<g id="Vector">
<path d="M76.7456 7.77526L29.9572 39.6922C21.8465 45.225 10.787 43.1347 5.25541 35.0251L52.0438 3.10819C60.1533 -2.42463 71.2128 -0.335521 76.7456 7.77526Z" fill="var(--fill-0, #4352A5)"/>
<path d="M76.7456 7.77526L29.9572 39.6922C21.8465 45.225 10.787 43.1347 5.25541 35.0251L52.0438 3.10819C60.1533 -2.42463 71.2128 -0.335521 76.7456 7.77526Z" fill="var(--fill-1, black)" fill-opacity="0.2"/>
</g>
<g id="Vector_2">
<path d="M38.1303 9.11556L3.6333 32.6484C-2.86515 23.1216 -0.411218 10.1318 9.11551 3.63333C18.6422 -2.86516 31.6319 -0.411222 38.1303 9.11556Z" fill="var(--fill-0, #4352A5)"/>
<path d="M38.1303 9.11556L3.6333 32.6484C-2.86515 23.1216 -0.411218 10.1318 9.11551 3.63333C18.6422 -2.86516 31.6319 -0.411222 38.1303 9.11556Z" fill="var(--fill-1, black)" fill-opacity="0.2"/>
</g>
<g id="Vector_3">
<path d="M78.3667 10.1512L43.8697 33.684C50.3681 43.2108 63.3578 45.6647 72.8845 39.1662C82.4112 32.6678 84.8651 19.678 78.3667 10.1512Z" fill="var(--fill-0, #4352A5)"/>
<path d="M78.3667 10.1512L43.8697 33.684C50.3681 43.2108 63.3578 45.6647 72.8845 39.1662C82.4112 32.6678 84.8651 19.678 78.3667 10.1512Z" fill="var(--fill-1, black)" fill-opacity="0.2"/>
</g>
</g>
</svg>
